# xmcd
#
# Track frame offsets:
#       150
#       13438
#       29498
#       46165
#       66660
#       92303
#       112075
#       131193
#       159583
#       182718
#       197793
#       216843
#       232763
#       251080
#       276165
#       296870
#
# Disc length: 4296 seconds
#
# Revision: 1
# Processed by: cddbd v1.5.1PL0 Copyright (c) Steve Scherf et al.
# Submitted via: MusiCat 1.1
#
DISCID=f810c610
DTITLE=Moody Blues - Best Selection
DYEAR=1900
DGENRE=
TTITLE0=The Story in Your Eyes
TTITLE1=Our Guessing Game
TTITLE2=Emily's Song
TTITLE3=After You Came
TTITLE4=One More Time to Live
TTITLE5=Nice to be Here
TTITLE6=You Can Never Go Home
TTITLE7=My Song
TTITLE8=Melancholy Man
TTITLE9=A Simple Game
TTITLE10=I'm Just a Singer
TTITLE11=Ride My Seesaw
TTITLE12=Tuesday Afternoon
TTITLE13=Isn't Life Strange
TTITLE14=Nights in White Satin
TTITLE15=Question
EXTD=\n\n
EXTT0=
EXTT1=
EXTT2=
EXTT3=
EXTT4=
EXTT5=
EXTT6=
EXTT7=
EXTT8=
EXTT9=
EXTT10=
EXTT11=
EXTT12=
EXTT13=
EXTT14=
EXTT15=
PLAYORDER=
